<svg id="Laag_1" data-name="Laag 1" xmlns="http://www.w3.org/2000/svg" viewBox="0 0 664.41 339.37"><title>logo-altena-college-sleeuwijk</title><path d="M140.05,309.77A209.7,209.7,0,0,1,62.32,265c-30-27.15-48.68-59.39-54.85-90-1.86,37.74,18,81.63,57,116.93,56.14,50.75,132.79,66.37,180.87,39.57C213,336.52,175.12,328.85,140.05,309.77Z" transform="translate(-5.2 -5.09)" style="fill:#ff559a"/><path d="M83.52,95.44C111.46,79.87,149,78.62,186.65,90.27,131.2,60.1,68.58,58.41,32.3,90.29,8.62,111.1.85,142.12,7.47,175c1.12-22.49,9.94-42.8,27-57.8C47.82,105.5,64.73,98.35,83.52,95.44Z" transform="translate(-5.2 -5.09)" style="fill:#ff559a"/><path d="M140.05,309.77a215.06,215.06,0,0,1-41.26-29.25C77.37,261.15,61.73,239.2,52.28,217.1c-18-42.19-13.51-84.95,16.49-111.31A84.65,84.65,0,0,1,83.52,95.44c-18.79,2.91-35.7,10.06-49,21.78-17.07,15-25.89,35.31-27,57.8,6.17,30.61,24.81,62.85,54.85,90A209.7,209.7,0,0,0,140.05,309.77Z" transform="translate(-5.2 -5.09)" style="fill:#32dcb9"/><path d="M58.82,201.56a178.14,178.14,0,0,1,8.12-49.07c15.59-49.75,50.42-86.4,90.55-101.26C188,31,224.37,24.28,258.68,36a108.73,108.73,0,0,1,18.65,8.44,112.4,112.4,0,0,0-48.95-33.59c-66.25-22.62-140.11,23.4-165,102.81A173.49,173.49,0,0,0,58.82,201.56Z" transform="translate(-5.2 -5.09)" style="fill:#3299f9"/><path d="M157.49,51.23c23.91-8.86,49.71-10,74.44-1.54,41.25,14.09,69.8,51.46,79.48,96.83.93-39.17-11.51-75.85-34.08-102.08A108.73,108.73,0,0,0,258.68,36C224.37,24.28,188,31,157.49,51.23Z" transform="translate(-5.2 -5.09)" style="fill:#32dcb9"/><path d="M146.44,313A116.37,116.37,0,0,1,119.64,290c-31.86-37-43.57-94.91-25.95-151.16,12-38.27,35.38-68.76,63.8-87.57-40.13,14.86-75,51.51-90.55,101.26a178.14,178.14,0,0,0-8.12,49.07c-1.46,61.94,31.94,117,84.5,134.92C143.32,336.48,153.34,317.32,146.44,313Z" transform="translate(-5.2 -5.09)" style="fill:#fcf571"/><path d="M140.05,309.77A209.7,209.7,0,0,1,62.32,265c-30-27.15-48.68-59.39-54.85-90-1.86,37.74,18,81.63,57,116.93,56.14,50.75,132.79,66.37,180.87,39.57C213,336.52,175.12,328.85,140.05,309.77Z" transform="translate(-5.2 -5.09)" style="fill:#8b5fbf"/><path d="M7.47,175c6.17,30.61,24.81,62.85,54.85,90a209.7,209.7,0,0,0,77.73,44.75,215.06,215.06,0,0,1-41.26-29.25C77.37,261.15,61.73,239.2,52.28,217.1" transform="translate(-5.2 -5.09)" style="fill:#32dcb9"/><path d="M134.89,265.25l44.72-129.31h26.45l45.69,129.31H226.47L214.81,231h-45.5l-11.47,34.23ZM174,213.13h36.17l-17.5-55.41h-.58Z" transform="translate(-5.2 -5.09)" style="fill:#290b68"/><path d="M289.47,130.3V233.36c0,12,2.52,16.53,10.5,16.53,3.89,0,8.16-1.37,12.25-3.12l5,15.56c-5.25,3.31-14.77,5.83-23.14,5.83-26.25,0-27.8-15.36-27.8-29.94V130.3Z" transform="translate(-5.2 -5.09)" style="fill:#290b68"/><path d="M352.3,130.1v37.34h26.25v18.08H352.3v49.39c0,11.86,4.67,15.36,12.64,15.36a25.89,25.89,0,0,0,13.22-4.08l5.84,15c-5.84,4.09-15.56,6.81-24.7,6.81-30.33,0-30.13-18.67-30.13-32.28V130.1Z" transform="translate(-5.2 -5.09)" style="fill:#290b68"/><path d="M466.63,191.55c0,29.95-37.14,33.83-55,34,.78,12.64,8,24.89,24.51,24.89,11.47,0,19.83-5.25,24.5-8.56l7.19,15.36c-3.11,2.73-15.94,10.89-34.22,10.89-32.09,0-45.31-20.61-45.31-49.77,0-28.59,16.53-53.87,47.45-53.87C454.77,164.52,466.63,174.24,466.63,191.55Zm-32.27-10.5c-15.56,0-22.95,15.17-23.53,29.56,10.5.19,35.19-3.11,35.19-18.08C446,185.33,441.35,181.05,434.36,181.05Z" transform="translate(-5.2 -5.09)" style="fill:#290b68"/><path d="M483.35,265.25V184.36l-1.56-16.92h19.44l1.95,12.25c6.8-9.72,17.11-15.17,29.94-15.17,19.45,0,30.92,10.89,30.92,33.84v66.89H540.9V203.41c0-11.86-2.13-21-14.58-21a19.74,19.74,0,0,0-19.83,19.64v63.2Z" transform="translate(-5.2 -5.09)" style="fill:#290b68"/><path d="M667.87,246.58l1.75,18.67h-20l-1.36-10.31-.78-.19c-6,8.75-15.94,13-26.64,13-27.42,0-38.11-19.44-38.11-47.25,0-34.22,17.11-56,50.55-56,6.42,0,20.62,1.56,34.62,6.81Zm-23-62.61c-2.92-1.36-8.55-2.53-14.58-2.53-18.47,0-24.7,17.31-24.7,38.31,0,16.14,3.89,31.5,20.22,31.5,12.06,0,19.06-8.56,19.06-16.92Z" transform="translate(-5.2 -5.09)" style="fill:#290b68"/><path d="M390.45,314.36c0,7.78,2.66,13.95,10.38,13.95a13.47,13.47,0,0,0,8.63-3.12l1.56,2.66a14.82,14.82,0,0,1-10.19,3.64c-9.28,0-13.95-6-13.95-17.07,0-13.23,8.11-16.73,14.08-16.73,4.15,0,6.68.84,9,2.4v7.26l-3.05.2V303.2c0-1-.2-1.42-1.69-1.88a15.62,15.62,0,0,0-4-.45C394.86,300.87,390.45,304.89,390.45,314.36Z" transform="translate(-5.2 -5.09)" style="fill:#8b5fbf"/><path d="M430.73,297.69c6,0,13,2.85,13,16,0,10.77-4.55,17.84-14.08,17.84-8.63,0-13-6.23-13-17.26C416.59,300.8,424.63,297.69,430.73,297.69Zm9.41,17.06c0-7.59-2.27-14-9.74-14s-10.25,6.09-10.25,13c0,7.47,1.89,14.67,10,14.67C437.09,328.44,440.14,322.27,440.14,314.75Z" transform="translate(-5.2 -5.09)" style="fill:#8b5fbf"/><path d="M457.32,327.59l3.44.2v2.79H450.7v-2.47l1.62-.19c1.24-.13,1.76-.52,1.76-2.14V289.06c0-1.56-.39-1.82-1.63-1.88l-1.94-.13v-2.73h6.81Z" transform="translate(-5.2 -5.09)" style="fill:#8b5fbf"/><path d="M474.05,327.59l3.44.2v2.79H467.43v-2.47l1.63-.19c1.23-.13,1.75-.52,1.75-2.14V289.06c0-1.56-.39-1.82-1.62-1.88l-1.95-.13v-2.73h6.81Z" transform="translate(-5.2 -5.09)" style="fill:#8b5fbf"/><path d="M508.17,306.12c0,8.17-7.52,11.35-20.5,10.06.19,6.74,2.72,12.26,10.38,12.26a13.82,13.82,0,0,0,8.37-2.79l1.3,2.66a16.71,16.71,0,0,1-9.61,3.18c-10.18,0-13.81-7.72-13.81-15.7,0-11,5.25-18.1,14.46-18.1C504.86,297.69,508.17,300.8,508.17,306.12Zm-9.41-5.58c-7.78,0-10.63,7-11,12.59,9.08.78,17,.26,17-6.94C504.8,302.36,502.53,300.54,498.76,300.54Z" transform="translate(-5.2 -5.09)" style="fill:#8b5fbf"/><path d="M536.84,324.67h-.13c-2.15,3-4.74,4.81-9.67,4.81-8.63,0-12.72-6-12.72-15.38,0-10.51,6-16.41,14.8-16.41a27.24,27.24,0,0,1,11,2.2v29.45c0,5.07-.39,15.12-13.3,15.12a24.63,24.63,0,0,1-10.18-2.2v-7.33l3.24-.33v4.15c0,1.17.06,1.43,1.36,1.95a13.21,13.21,0,0,0,5.32.71c6.55,0,10.06-3.11,10.32-11.74Zm0-22.57a21.55,21.55,0,0,0-8.11-1.43c-6.75,0-10.84,4.93-10.84,13.24,0,7.59,2.27,12.52,9.6,12.52,5.52,0,9.35-3.44,9.35-9.41Z" transform="translate(-5.2 -5.09)" style="fill:#8b5fbf"/><path d="M573,306.12c0,8.17-7.53,11.35-20.5,10.06.19,6.74,2.72,12.26,10.38,12.26a13.88,13.88,0,0,0,8.37-2.79l1.29,2.66a16.67,16.67,0,0,1-9.6,3.18c-10.19,0-13.82-7.72-13.82-15.7,0-11,5.26-18.1,14.47-18.1C569.72,297.69,573,300.8,573,306.12Zm-9.41-5.58c-7.79,0-10.64,7-11,12.59,9.09.78,17,.26,17-6.94C569.65,302.36,567.38,300.54,563.62,300.54Z" transform="translate(-5.2 -5.09)" style="fill:#8b5fbf"/></svg>