<svg xmlns="http://www.w3.org/2000/svg" viewBox="0 0 127.96 68.2"><defs><style>.cls-1{fill:#fff;}</style></defs><g id="Layer_2" data-name="Layer 2"><g id="Logo_Concepts" data-name="Logo Concepts"><path class="cls-1" d="M0,45.78V0H11.41V18.75h.31L26.78,0H39.35L24.06,18.26,42.15,45.78H29.65L17.31,26.47l-5.9,7V45.78Z"/><path class="cls-1" d="M47.66,45.78V0H79.33V8.71H59.07v9.2H76.3v8.63H59.07V37.08h21v8.7Z"/><path class="cls-1" d="M99,45.78,83.68,0H95.79l6,21.35c.78,2.52,1.46,5,2.06,7.33s1.28,4.81,2,7.34h.31c.73-2.53,1.4-5,2-7.34s1.3-4.81,2-7.33l6-21.35h11.64L112.71,45.78Z"/><path class="cls-1" d="M0,49.26H4.79a4.11,4.11,0,0,1,4.28,4.4,4.15,4.15,0,0,1-4.28,4.46H1.36v5.72H0Zm4.61,7.57a2.89,2.89,0,0,0,3.06-3.17,2.85,2.85,0,0,0-3-3.12H1.36v6.29Z"/><path class="cls-1" d="M11.4,49.26h1.34V54.9c0,.48,0,.85,0,.85h0a4.27,4.27,0,0,1,4-2.59c2.44,0,3.31,1.47,3.31,4v6.64H18.66V57.58c0-1.64-.24-3.09-2.15-3.09a3.8,3.8,0,0,0-3.61,3,5.1,5.1,0,0,0-.16,1.39v5H11.4Z"/><path class="cls-1" d="M27.61,53.16a5.47,5.47,0,1,1-5.25,5.41A5.27,5.27,0,0,1,27.61,53.16Zm0,9.67a4,4,0,0,0,3.87-4.26,3.87,3.87,0,1,0-7.73,0A4,4,0,0,0,27.61,62.83Z"/><path class="cls-1" d="M35.74,54.71H34.43V53.53h1.33v-3h1.32v3h2.48v1.18H37.08V59.9c0,2.45,1.48,2.76,2.23,2.76a2.29,2.29,0,0,0,.45,0v1.26a2.83,2.83,0,0,1-.57,0c-1.15,0-3.45-.4-3.45-3.88Z"/><path class="cls-1" d="M46.48,53.16a5.47,5.47,0,1,1-5.24,5.41A5.27,5.27,0,0,1,46.48,53.16Zm0,9.67a4,4,0,0,0,3.87-4.26,3.87,3.87,0,1,0-7.73,0A4,4,0,0,0,46.48,62.83Z"/><path class="cls-1" d="M57.67,66.93c1.93,0,3.47-1,3.47-3.27v-1c0-.39,0-.75,0-.75h0A3.23,3.23,0,0,1,58,63.78c-2.66,0-4.42-2.22-4.42-5.35s1.64-5.27,4.3-5.27,3.28,1.74,3.28,1.74h0a2.37,2.37,0,0,1,0-.35V53.41h1.3V63.59c0,3.32-2.33,4.61-4.75,4.61a7,7,0,0,1-3.26-.83L55,66.21A5.89,5.89,0,0,0,57.67,66.93Zm3.49-8.5c0-3-1.38-4-3.14-4-1.93,0-3.05,1.48-3.05,4s1.28,4.11,3.25,4.11C59.78,62.52,61.16,61.5,61.16,58.43Z"/><path class="cls-1" d="M65.71,53.41H67v1.84c0,.46,0,.83,0,.83h0a3.43,3.43,0,0,1,3.13-2.78,2.21,2.21,0,0,1,.53.07v1.39a2.6,2.6,0,0,0-.49,0c-1.4,0-2.44,1.17-2.88,2.7a7.13,7.13,0,0,0-.27,2v4.4H65.71Z"/><path class="cls-1" d="M78,57.39h.55v-.27c0-2-1-2.7-2.46-2.7a4.67,4.67,0,0,0-2.8,1l-.63-1.08a5.54,5.54,0,0,1,3.53-1.18c2.38,0,3.7,1.39,3.7,4v6.68H78.61V62.7a8.47,8.47,0,0,1,0-.87h0a3.61,3.61,0,0,1-3.31,2.26A3.12,3.12,0,0,1,71.93,61C71.93,57.47,76.29,57.39,78,57.39Zm-2.48,5.5c1.89,0,3-2.08,3-3.88v-.46H78c-1.56,0-4.67.06-4.67,2.37A2,2,0,0,0,75.52,62.89Z"/><path class="cls-1" d="M83,53.41h1.28v1a7.92,7.92,0,0,1,0,.81h0a3.61,3.61,0,0,1,3.43-2.07c2.67,0,4.32,2.24,4.32,5.48s-1.87,5.45-4.43,5.45a3.59,3.59,0,0,1-3.26-2h0s0,.37,0,.91v5H83Zm4.46,9.44c1.75,0,3.19-1.56,3.19-4.21s-1.28-4.2-3.13-4.2c-1.66,0-3.22,1.25-3.22,4.22C84.29,60.75,85.4,62.85,87.45,62.85Z"/><path class="cls-1" d="M94.61,49.26H96V54.9c0,.48,0,.85,0,.85h0a4.24,4.24,0,0,1,3.94-2.59c2.45,0,3.32,1.47,3.32,4v6.64h-1.35V57.58c0-1.64-.23-3.09-2.14-3.09a3.8,3.8,0,0,0-3.61,3A5.1,5.1,0,0,0,96,58.84v5H94.61Z"/><path class="cls-1" d="M106.26,49.26h1.4V51h-1.4Zm0,4.15h1.34V63.84H106.3Z"/><path class="cls-1" d="M115.39,53.16A4.78,4.78,0,0,1,119,54.65l-.69,1.06a4.1,4.1,0,0,0-2.9-1.27,4.21,4.21,0,0,0,0,8.39,4.31,4.31,0,0,0,3.18-1.48l.61,1.1a5.38,5.38,0,1,1-3.87-9.29Z"/><path class="cls-1" d="M121.63,61.56a4.15,4.15,0,0,0,3,1.27c1.07,0,2-.56,2-1.66,0-2.29-5.35-1.73-5.35-5.13,0-1.87,1.6-2.88,3.39-2.88a4.09,4.09,0,0,1,3.06,1.14l-.61,1.08a3.44,3.44,0,0,0-2.49-1c-1,0-2,.46-2,1.62,0,2.3,5.35,1.68,5.35,5.13,0,1.7-1.4,2.92-3.4,2.92a4.94,4.94,0,0,1-3.66-1.51Z"/></g></g></svg>