<?xml version="1.0" encoding="UTF-8"?><svg xmlns="http://www.w3.org/2000/svg" viewBox="0 0 116.67 37.76"><defs><style>.d{fill:#fff;}.e{fill:#ee7725;}</style></defs><g id="a"/><g id="b"><g id="c"><g><path class="d" d="M29.95,30.42V1.53H3.06c1.82,4.25,2.35,10.38,.89,18.02-.63,3.02-1.61,5.96-2.91,8.76-.6,1.32-1.04,2.12-1.04,2.12H29.95Z"/><path class="e" d="M29.95,30.42V1.53H11.39c7.77,2.18,13.26,6.44,13.38,11.74C25.08,26.44,1.55,30.42,1.55,30.42H29.95ZM6.07,1.79c2.37,1.26,4.2,3.34,5.14,5.85,.37,.93,.62,1.9,.75,2.89,2.39,.27,4.76,.7,7.1,1.28v-.02C18.02,6.92,13.6,3.11,6.07,1.79Zm-2.77,.34c.89,2.52,1.38,5.17,1.45,7.85,2.12,.11,4.05,.22,5.87,.42-.2-1.2-.59-2.36-1.15-3.44-1.23-2.45-3.49-4.21-6.17-4.82h0ZM1.04,28.32c3.3-1.71,5.99-4.4,7.72-7.69-2.98,.3-5.1,.37-5.1,.37-.66,2.51-1.53,4.95-2.62,7.3v.02h0Zm8.35-9.02c1.07-2.39,1.55-5.01,1.4-7.62-2-.22-4-.37-6-.47-.03,2.63-.28,5.25-.75,7.83-.05,.28-.05,.34-.11,.62h.36c1.82-.07,3.28-.16,5.1-.36h0ZM3.37,28.43c6.41-.92,11.7-4.82,14.26-9.21-2.42,.54-4.87,.94-7.33,1.21-1.48,3.29-3.89,6.07-6.93,8.01h0Zm19.18-10.88c-1.02,.52-2.1,.92-3.21,1.21-1.2,2.41-2.94,4.51-5.1,6.12,3.9-2.09,6.87-4.6,8.29-7.36v.03Zm.79-2.26c.03-.59-1-1.21-2.78-1.79h-.02c.02,1.3-.18,2.59-.59,3.82,2.07-.66,3.37-1.36,3.4-2.04h0Zm-2.91-3.1v.03c1.08,.31,2.11,.77,3.06,1.36,0-.08,0-.15-.02-.21-.25-3.58-3.06-6.65-7.48-8.79,2.49,2.17,4.04,4.69,4.44,7.6h0Zm-8.33-.34c.09,2.49-.33,4.97-1.24,7.3,2.53-.31,5.05-.77,7.53-1.39,.66-1.45,.96-3.03,.88-4.62-2.36-.58-4.75-1.01-7.17-1.29h0Z"/><path class="d" d="M40.25,4.83c0,1.46-.91,2.5-2.19,2.5h-2.01V2.42h2.19c1.16,0,2.01,1.02,2.01,2.41h0Zm-4.2,3.4h2.21c1.54,0,2.66,1.18,2.66,2.82s-1.02,2.6-2.66,2.6h-2.21v-5.42h0Zm6.03-3.47c0-1.79-1.46-3.24-3.25-3.23h-6v.72h1.5V13.8h-1.5v.73h6.37c2.01,0,3.51-1.46,3.51-3.4,.03-1.31-.73-2.52-1.93-3.06-.5-.24-1.04-.38-1.59-.41,1.59-.14,2.9-1.44,2.9-2.92v.02Zm7.17,9.04h-1.89v-5.25c1.08-1.32,1.44-1.66,1.79-1.66,.2,0,.48,.18,.87,.55l1.14-1.38-.61-.53c-.15-.13-.35-.19-.55-.18-.71,0-1.22,.44-2.64,2.25v-2.21h-.36l-2.84,.77v.53h1.73v7.1h-1.5v.73h4.87v-.73h-.01Zm8.54-5.11h-4.57c.18-1.54,1.18-2.5,2.62-2.5,1.06-.02,1.93,.82,1.95,1.88,0,.05,0,.11,0,.16v.46Zm1.61,.79v-.53c0-2.13-1.46-3.59-3.59-3.59-2.44,0-4.24,2.01-4.24,4.76s1.79,4.66,4.28,4.66c1.14,0,1.83-.24,3.31-1.08l-.36-.73c-1.1,.71-1.64,.91-2.42,.91-1.87,0-3.18-1.7-3.18-4.18v-.22h6.19Zm7.9,2.92c-.26,.2-.45,.34-.57,.45-.68,.53-.99,.65-1.6,.65-1.61,0-2.58-1.32-2.58-3.53s1.28-3.78,3.19-3.78c1.16,0,1.56,.41,1.56,1.63v4.57Zm3.21,1.58v-.55h-1.7V0h-.37l-2.84,.77v.53h1.7V5.85c-.53-.33-1.15-.51-1.77-.49-2.58,0-4.67,2.19-4.67,4.91,0,2.52,1.62,4.51,3.67,4.51,1.02,0,1.7-.36,2.78-1.44v1.38h.37l2.84-.75h0Zm6.21-1.4c-.87,.77-1.38,1.05-2.01,1.05-.7,.05-1.31-.48-1.36-1.18,0-.06,0-.12,0-.18v-.99l3.37-.78v2.08Zm2.99,1.58v-.56h-1.52V7.53c0-1.3-1.15-2.17-2.88-2.17s-3.11,.85-3.11,1.99c0,.2,.05,.39,.16,.55l1.76-.51v-.93c.37-.22,.79-.34,1.22-.34,.74-.03,1.35,.55,1.38,1.28,0,.03,0,.05,0,.08v2.23l-3.37,.77c-.95,.22-1.61,1.07-1.59,2.04-.02,1.24,.98,2.26,2.21,2.27,.05,0,.11,0,.16,0,1.04,0,1.79-.41,2.62-1.44v.2c0,.73,.34,1.16,.96,1.16,.23-.02,.46-.06,.68-.14l1.32-.41h0Zm-33.83,3.26h-3.97v.73h1.48v7.43c0,2.38-1.52,3.96-3.76,3.96s-3.59-1.56-3.59-3.94v-7.45h1.48v-.73h-4.69v.73h1.5v8.06c0,2.58,2.11,4.47,4.97,4.47,.95,0,1.89-.24,2.74-.68,1.64-.89,2.38-2.25,2.38-4.36v-7.5h1.47v-.73h0Zm11,12.28h-1.48v-5.97c0-1.52-.91-2.46-2.38-2.46-1.26,0-2.11,.53-3.59,2.25v-2.21h-.34l-2.84,.77v.53h1.7v7.1h-1.5v.73h4.47v-.73h-1.48v-5.13c1.72-1.97,2.21-2.35,3.06-2.35s1.4,.65,1.4,1.7v5.78h-1.47v.72h4.45v-.73Zm5.85,0h-1.5v-8.4h-.36l-2.84,.77v.53h1.71v7.1h-1.5v.73h4.47v-.73Zm-3.35-11.79c0,.56,.46,1.02,1.02,1.02s1.02-.46,1.02-1.02-.46-1.02-1.02-1.02-1.02,.46-1.02,1.02m12.22,3.79h-3.04v.73h1.32l-2.21,5.62-2.35-5.62h1.38v-.73h-3.82v.73l.83,.02,3.45,8.24h.39l3.21-8.26h.83v-.73Zm6.53,2.92h-4.58c.18-1.54,1.18-2.5,2.62-2.5,1.06-.02,1.93,.82,1.95,1.88,0,.05,0,.11,0,.16v.46Zm1.61,.77v-.53c0-2.13-1.46-3.59-3.59-3.59-2.44,0-4.24,2.01-4.24,4.76s1.77,4.65,4.28,4.65c1.15,0,1.84-.24,3.31-1.08l-.38-.73c-1.1,.71-1.63,.91-2.42,.91-1.87,0-3.17-1.7-3.17-4.18v-.22h6.21Zm6.34,4.33h-1.89v-5.25c1.08-1.32,1.44-1.66,1.79-1.66,.2,0,.47,.18,.87,.55l1.14-1.38-.61-.53c-.16-.13-.35-.19-.55-.18-.71,0-1.22,.44-2.64,2.25v-2.21h-.34l-2.84,.77v.53h1.7v7.1h-1.48v.73h4.87v-.73Zm3.81,.2c.57,.53,1.4,.79,2.51,.79,1.75,0,2.97-1.1,2.97-2.68,0-1.26-.61-1.91-2.54-2.68-2.38-.97-2.52-1.07-2.52-1.91s.68-1.4,1.7-1.4,1.95,.63,1.95,1.4c0,.22-.05,.44-.12,.65h.85l.48-2.84h-.85l-.12,.71c-.59-.47-1.33-.71-2.09-.68-1.81,0-3.06,1.04-3.06,2.58,0,1.24,.68,1.97,2.56,2.7,2.07,.81,2.62,1.24,2.62,2.04s-.81,1.36-1.89,1.36c-1.22,0-2.33-.75-2.33-1.59v-.53h-.91v2.79h.79v-.7h0Zm11.43-.2h-1.5v-8.4h-.35l-2.84,.77v.53h1.71v7.1h-1.5v.73h4.47v-.73Zm-3.35-11.79c0,.56,.46,1.02,1.02,1.02s1.02-.46,1.02-1.02-.46-1.02-1.02-1.02-1.02,.46-1.02,1.02m9.07,11.16c-.68,.39-.93,.47-1.34,.47-.65,0-.91-.28-.91-1.02v-5.92h2.44v-.9h-2.44v-2.78h-1.42v2.72l-1.72,.44v.53h1.72v6.09c0,1.2,.68,1.91,1.83,1.91,.73,0,1.12-.18,2.17-1.02l-.34-.52Zm9.59-7.37h-3.03v.74h1.32l-2.21,5.62-2.38-5.62h1.4v-.74h-3.83v.74h.84l3.19,7.63c-.29,.87-.73,1.68-1.28,2.41-.61,.79-.99,1.08-2.07,1.7l1.28,1.32c.36-.48,.61-.83,.79-1.07,.74-1.11,1.35-2.3,1.83-3.55l3.32-8.44h.83v-.74h0Zm-79.43,14.15c0,.88-.52,1.58-1.19,1.58s-1.18-.71-1.18-1.59,.52-1.56,1.18-1.56,1.19,.7,1.19,1.57m.68,0c-.03-1.02-.89-1.83-1.92-1.79-1.02,.03-1.83,.89-1.79,1.92,.03,1,.86,1.8,1.86,1.8,1.03-.04,1.85-.89,1.85-1.92m3.43-1.09v-.88h-.29v.16h-2.45v.29h.58v3.04h-.58v.29h1.77v-.29h-.59v-1.39h1v.39h.29v-1.09h-.29v.38h-1v-1.31h1.28v.41h.28Zm4.15,1.45h-1.17l.6-1.38,.57,1.38Zm1.45,1.44v-.29h-.34l-1.44-3.44h-.2l-1.5,3.44h-.29v.29h1.09v-.29h-.45l.37-.85h1.42l.34,.85h-.34v.29h1.33Zm3.73-2.56c.02-.56-.41-1.04-.97-1.06-.05,0-.11,0-.16,0h-1.89v.31h.58v3.01h-.59v.29h1.77v-.29h-.59v-3.01h.46c.37-.04,.71,.24,.74,.61,0,.06,0,.11,0,.17,.03,.43-.3,.8-.73,.83h-.04c-.05,0-.1,0-.16,0v.25c.11,.02,.23,.03,.34,.03,.64,.05,1.2-.42,1.25-1.06,0-.02,0-.05,0-.07m3.75-.01c.02-.56-.41-1.04-.97-1.06-.05,0-.11,0-.16,0h-1.89v.31h.6v3.01h-.58v.29h1.77v-.29h-.59v-3.01h.45c.37-.04,.71,.24,.74,.61,0,.06,0,.11,0,.17,.03,.43-.3,.8-.73,.83h-.04c-.05,0-.1,0-.16,0v.25c.11,.02,.23,.03,.34,.03,.64,.05,1.2-.42,1.25-1.06,0-.02,0-.05,0-.07m3.57,2.54v-.79h-.28v.48h-1.31v-2.99h.58v-.31h-1.77v.31h.59v3.01h-.59v.29h2.78Zm2.57,0v-.29h-.58v-3.01h.58v-.31h-1.77v.31h.59v3.01h-.59v.29h1.77Zm3.82,0v-.73h-.29v.41h-1.33v-1.37h1v.39h.29v-1.09h-.29v.38h-1v-1.31h1.28v.41h.28v-.88h-.29v.16h-2.46v.29h.59v3.04h-.59v.29h2.8Zm4.07-1.8c0,.85-.56,1.49-1.29,1.49h-.61v-2.99h.62c.72,0,1.27,.66,1.27,1.5m.68,0c-.01-1.01-.85-1.82-1.86-1.81h-1.88v.29h.58v3.04h-.58v.29h1.85c1,.05,1.84-.72,1.89-1.72,0-.03,0-.06,0-.08m4.62,.86c0-.51-.19-.76-.86-1.13l-.55-.34c-.27-.15-.34-.27-.34-.47,0-.34,.24-.53,.61-.53,.23,0,.46,.08,.66,.2v.39h.29v-.91h-.29v.2c-.22-.12-.46-.18-.71-.18-.58-.03-1.08,.41-1.12,.99v.03c0,.46,.23,.74,.92,1.08,.69,.34,.86,.53,.86,.83s-.28,.52-.68,.52c-.28,0-.56-.1-.8-.26v-.43h-.29v.98h.29v-.2c.27,.16,.57,.25,.88,.26,.59,.04,1.09-.41,1.13-.99v-.03m4.02,.77v-.73h-.28v.4c-.25,.16-.53,.25-.83,.26-.85-.02-1.52-.73-1.5-1.57,0-.02,0-.04,0-.06-.06-.78,.53-1.46,1.31-1.52,.02,0,.05,0,.07,0,.34,0,.68,.12,.94,.34v.26h.28v-.94h-.28v.24c-.28-.16-.6-.24-.92-.23-1.22,0-2.07,.79-2.07,1.92s.85,1.9,2.04,1.9c.43,.01,.85-.08,1.24-.26m2.64,.16v-.29h-.59v-3.01h.59v-.31h-1.77v.31h.59v3.01h-.59v.29h1.77Zm3.81,0v-.73h-.29v.41h-1.33v-1.37h1v.39h.29v-1.09h-.29v.38h-1v-1.31h1.28v.41h.28v-.88h-.29v.16h-2.46v.29h.59v3.04h-.59v.29h2.8Zm5.08-3.3v-.31h-1.57v.31h.59v2.24l-2.2-2.55h-1.01v.31h.55l.16,.2v2.81h-.59v.29h1.57v-.29h-.59v-2.3l2.27,2.66h.23v-3.37h.59Zm3.69,3.14v-.73h-.28v.4c-.25,.16-.53,.25-.83,.26-.85-.02-1.52-.73-1.5-1.57,0-.02,0-.04,0-.06-.06-.78,.53-1.46,1.31-1.52,.02,0,.05,0,.07,0,.34,0,.68,.12,.94,.34v.26h.28v-.94h-.28v.24c-.28-.16-.6-.24-.92-.23-1.22,0-2.07,.79-2.07,1.92s.85,1.9,2.04,1.9c.43,.01,.86-.08,1.24-.26m3.67,.16v-.73h-.29v.41h-1.33v-1.37h1v.39h.29v-1.09h-.29v.38h-1v-1.31h1.28v.41h.28v-.88h-.29v.16h-2.46v.29h.59v3.04h-.59v.29h2.8Zm3.29-.94c0-.51-.19-.76-.86-1.13l-.55-.34c-.27-.15-.34-.27-.34-.47,0-.3,.25-.54,.54-.53,.02,0,.05,0,.07,0,.23,0,.46,.08,.66,.2v.39h.29v-.91h-.29v.2c-.22-.12-.46-.18-.71-.18-.58-.03-1.08,.41-1.12,.99v.03c0,.46,.23,.74,.92,1.08s.86,.53,.86,.83-.28,.52-.68,.52c-.29,0-.56-.1-.8-.26v-.43h-.29v.98h.29v-.2c.27,.16,.57,.25,.88,.26,.59,.04,1.09-.4,1.13-.99v-.03"/></g></g></g></svg>