<?xml version="1.0" encoding="UTF-8"?><svg id="a" xmlns="http://www.w3.org/2000/svg" viewBox="0 0 664.41 339.37"><defs><style>.b{fill:#fff;}.c{fill:#3299f9;}.d{fill:#ff559a;}.e{fill:#8b5fbf;}.f{fill:#fcf571;}.g{fill:#32dcb9;}</style></defs><path class="d" d="M134.85,304.68c-28.84-9.14-55.35-24.41-77.73-44.77C27.12,232.76,8.44,200.52,2.27,169.91c-1.86,37.74,18,81.63,57,116.93,56.14,50.75,132.79,66.37,180.87,39.57-32.34,5.02-70.22-2.65-105.29-21.73Z"/><path class="d" d="M78.32,90.35c27.94-15.57,65.48-16.82,103.13-5.17-55.45-30.17-118.07-31.86-154.35,.02C3.42,106.01-4.35,137.03,2.27,169.91c1.12-22.49,9.94-42.8,27-57.8,13.35-11.7,30.26-18.85,49.05-21.76Z"/><path class="g" d="M134.85,304.68c-14.86-8.09-28.7-17.91-41.26-29.25-21.42-19.37-37.06-41.32-46.51-63.42-18-42.19-13.51-84.95,16.49-111.31,4.53-3.96,9.48-7.43,14.75-10.35-18.79,2.91-35.7,10.06-49,21.78C12.25,127.13,3.43,147.44,2.32,169.93c6.17,30.61,24.81,62.85,54.85,90,22.36,20.34,48.86,35.61,77.68,44.75Z"/><path class="c" d="M53.62,196.47c.4-16.66,3.13-33.17,8.12-49.07,15.59-49.75,50.42-86.4,90.55-101.26,30.51-20.23,66.88-26.95,101.19-15.23,6.47,2.22,12.71,5.05,18.65,8.44-13.01-15.38-29.92-26.98-48.95-33.59C156.93-16.86,83.07,29.16,58.18,108.57c-9.05,28.42-10.62,58.7-4.56,87.9Z"/><path class="g" d="M152.29,46.14c23.91-8.86,49.71-10,74.44-1.54,41.25,14.09,69.8,51.46,79.48,96.83,.93-39.17-11.51-75.85-34.08-102.08-5.94-3.39-12.18-6.22-18.65-8.44-34.31-11.72-70.68-5-101.19,15.23Z"/><path class="f" d="M141.24,307.91c-10.05-6.26-19.09-14.01-26.8-23-31.86-37-43.57-94.91-25.95-151.16,12-38.27,35.38-68.76,63.8-87.57-40.13,14.86-75,51.51-90.55,101.26-4.99,15.9-7.72,32.41-8.12,49.07-1.46,61.94,31.94,117,84.5,134.92,0-.04,10.02-19.2,3.12-23.52Z"/><path class="e" d="M134.85,304.68c-28.84-9.14-55.35-24.41-77.73-44.77C27.12,232.76,8.44,200.52,2.27,169.91c-1.86,37.74,18,81.63,57,116.93,56.14,50.75,132.79,66.37,180.87,39.57-32.34,5.02-70.22-2.65-105.29-21.73Z"/><path class="g" d="M2.27,169.91c6.17,30.61,24.81,62.85,54.85,90,22.38,20.35,48.9,35.61,77.73,44.75-14.86-8.09-28.7-17.91-41.26-29.25-21.42-19.35-37.06-41.3-46.51-63.4"/><path class="b" d="M129.69,260.16l44.72-129.31h26.45l45.69,129.31h-25.28l-11.66-34.25h-45.5l-11.47,34.23-22.95,.02Zm39.11-52.12h36.17l-17.5-55.41h-.58l-18.09,55.41Z"/><path class="b" d="M284.27,125.21v103.06c0,12,2.52,16.53,10.5,16.53,3.89,0,8.16-1.37,12.25-3.12l5,15.56c-5.25,3.31-14.77,5.83-23.14,5.83-26.25,0-27.8-15.36-27.8-29.94V125.21h23.19Z"/><path class="b" d="M347.1,125.01v37.34h26.25v18.08h-26.25v49.39c0,11.86,4.67,15.36,12.64,15.36,4.7-.14,9.27-1.55,13.22-4.08l5.84,15c-5.84,4.09-15.56,6.81-24.7,6.81-30.33,0-30.13-18.67-30.13-32.28V125.01h23.13Z"/><path class="b" d="M461.43,186.46c0,29.95-37.14,33.83-55,34,.78,12.64,8,24.89,24.51,24.89,11.47,0,19.83-5.25,24.5-8.56l7.19,15.36c-3.11,2.73-15.94,10.89-34.22,10.89-32.09,0-45.31-20.61-45.31-49.77s16.53-53.87,47.45-53.87c19.02,.03,30.88,9.75,30.88,27.06Zm-32.27-10.5c-15.56,0-22.95,15.17-23.53,29.56,10.5,.19,35.19-3.11,35.19-18.08-.02-7.2-4.67-11.48-11.66-11.48h0Z"/><path class="b" d="M478.15,260.16v-80.89l-1.56-16.92h19.44l1.95,12.25c6.8-9.72,17.11-15.17,29.94-15.17,19.45,0,30.92,10.89,30.92,33.84v66.89h-23.14v-61.84c0-11.86-2.13-21-14.58-21-10.9-.05-19.77,8.74-19.83,19.64v63.2h-23.14Z"/><path class="b" d="M662.67,241.49l1.75,18.67h-20l-1.36-10.31-.78-.19c-6,8.75-15.94,13-26.64,13-27.42,0-38.11-19.44-38.11-47.25,0-34.22,17.11-56,50.55-56,6.42,0,20.62,1.56,34.62,6.81l-.03,75.27Zm-23-62.61c-2.92-1.36-8.55-2.53-14.58-2.53-18.47,0-24.7,17.31-24.7,38.31,0,16.14,3.89,31.5,20.22,31.5,12.06,0,19.06-8.56,19.06-16.92v-50.36Z"/><path class="b" d="M385.25,309.27c0,7.78,2.66,13.95,10.38,13.95,3.15,0,6.21-1.1,8.63-3.12l1.56,2.66c-2.82,2.45-6.46,3.75-10.19,3.64-9.28,0-13.95-6-13.95-17.07,0-13.23,8.11-16.73,14.08-16.73,4.15,0,6.68,.84,9,2.4v7.26l-3.05,.2v-4.35c0-1-.2-1.42-1.69-1.88-1.31-.32-2.65-.47-4-.45-6.36,0-10.77,4.02-10.77,13.49Z"/><path class="b" d="M425.53,292.6c6,0,13,2.85,13,16,0,10.77-4.55,17.84-14.08,17.84-8.63,0-13-6.23-13-17.26-.06-13.47,7.98-16.58,14.08-16.58Zm9.41,17.06c0-7.59-2.27-14-9.74-14s-10.25,6.09-10.25,13c0,7.47,1.89,14.67,10,14.67,6.94,.02,9.99-6.15,9.99-13.67Z"/><path class="b" d="M452.12,322.5l3.44,.2v2.79h-10.06v-2.47l1.62-.19c1.24-.13,1.76-.52,1.76-2.14v-36.72c0-1.56-.39-1.82-1.63-1.88l-1.94-.13v-2.73h6.81v43.27Z"/><path class="b" d="M468.85,322.5l3.44,.2v2.79h-10.06v-2.47l1.63-.19c1.23-.13,1.75-.52,1.75-2.14v-36.72c0-1.56-.39-1.82-1.62-1.88l-1.95-.13v-2.73h6.81v43.27Z"/><path class="b" d="M502.97,301.03c0,8.17-7.52,11.35-20.5,10.06,.19,6.74,2.72,12.26,10.38,12.26,3.02,0,5.96-.97,8.37-2.79l1.3,2.66c-2.8,2.03-6.15,3.14-9.61,3.18-10.18,0-13.81-7.72-13.81-15.7,0-11,5.25-18.1,14.46-18.1,6.1,0,9.41,3.11,9.41,8.43Zm-9.41-5.58c-7.78,0-10.63,7-11,12.59,9.08,.78,17,.26,17-6.94,.04-3.83-2.23-5.65-6-5.65Z"/><path class="b" d="M531.64,319.58h-.13c-2.15,3-4.74,4.81-9.67,4.81-8.63,0-12.72-6-12.72-15.38,0-10.51,6-16.41,14.8-16.41,3.78-.04,7.53,.71,11,2.2v29.45c0,5.07-.39,15.12-13.3,15.12-3.51,0-6.98-.75-10.18-2.2v-7.33l3.24-.33v4.15c0,1.17,.06,1.43,1.36,1.95,1.71,.6,3.52,.84,5.32,.71,6.55,0,10.06-3.11,10.32-11.74l-.04-5Zm0-22.57c-2.59-.99-5.34-1.48-8.11-1.43-6.75,0-10.84,4.93-10.84,13.24,0,7.59,2.27,12.52,9.6,12.52,5.52,0,9.35-3.44,9.35-9.41v-14.92Z"/><path class="b" d="M567.8,301.03c0,8.17-7.53,11.35-20.5,10.06,.19,6.74,2.72,12.26,10.38,12.26,3.02,0,5.96-.97,8.37-2.79l1.29,2.66c-2.79,2.03-6.15,3.14-9.6,3.18-10.19,0-13.82-7.72-13.82-15.7,0-11,5.26-18.1,14.47-18.1,6.13,0,9.41,3.11,9.41,8.43Zm-9.41-5.58c-7.79,0-10.64,7-11,12.59,9.09,.78,17,.26,17-6.94,.06-3.83-2.21-5.65-5.97-5.65h-.03Z"/></svg>